<?xml version="1.0" encoding="UTF-8"?>
<svg id="Layer_1" xmlns="http://www.w3.org/2000/svg" version="1.1" viewBox="0 0 1024 1024">
  <!-- Generator: Adobe Illustrator 29.8.2, SVG Export Plug-In . SVG Version: 2.1.1 Build 3)  -->
  <path d="M920.12,419.6l-238.51-77.31,235.57-76.89c21.58-7.04,36.17-27.16,36.17-49.86h0c0-35.66-34.82-60.92-68.72-49.86l-372.64,121.62-375.76-121.8c-33.9-10.99-68.66,14.29-68.66,49.92h0c0,22.75,14.66,42.91,36.3,49.92l238.51,77.31-235.57,76.89c-21.58,7.04-36.17,27.16-36.17,49.86h0c0,35.66,34.82,60.92,68.72,49.86l372.64-121.62,375.76,121.8c33.9,10.99,68.66-14.29,68.66-49.92h0c0-22.75-14.66-42.91-36.3-49.92Z"/>
  <path d="M888.33,566.17h0c-22.86-10.06-49.93-1.86-62.66,18.97-69.11,113.08-187.1,181.73-316.73,181.73s-245.58-67.57-314.97-178.91c-12.92-20.73-40.04-28.74-62.83-18.51h0c-26.18,11.76-36.37,42.71-21.56,66.54,87,140.04,235.83,225.08,399.36,225.08s314.86-86.35,401.5-228.51c14.6-23.96,4.18-54.84-22.1-66.39Z"/>
</svg>